<?xml version="1.0" standalone="no"?>
<!DOCTYPE svg PUBLIC "-//W3C//DTD SVG 20010904//EN"
 "http://www.w3.org/TR/2001/REC-SVG-20010904/DTD/svg10.dtd">
<svg version="1.0" xmlns="http://www.w3.org/2000/svg"
 width="714.000000pt" height="714.000000pt" viewBox="0 0 714.000000 714.000000"
 preserveAspectRatio="xMidYMid meet">

<g transform="translate(0.000000,714.000000) scale(0.100000,-0.100000)"
fill="#000000" stroke="none">
<path d="M3997 6833 c-3 -5 -2 -128 1 -276 5 -266 5 -267 26 -261 12 4 22 8
24 9 2 2 0 123 -4 269 -7 246 -8 266 -25 266 -10 0 -20 -3 -22 -7z"/>
<path d="M4120 6647 c0 -107 3 -228 6 -270 6 -66 10 -77 25 -77 18 0 19 14 19
270 l0 270 -25 0 -25 0 0 -193z"/>
<path d="M3380 6560 c0 -256 1 -270 19 -270 16 0 19 11 24 83 4 45 7 166 7
270 l0 187 -25 0 -25 0 0 -270z"/>
<path d="M3506 6793 c-10 -61 -7 -503 3 -503 5 0 16 -3 24 -6 13 -5 16 16 19
146 2 121 6 153 18 160 8 5 17 10 20 10 3 0 12 -5 20 -10 12 -7 16 -39 18
-160 3 -140 5 -150 23 -150 18 0 19 9 19 159 0 88 -3 167 -6 176 -11 27 -53
38 -80 20 -13 -8 -26 -15 -29 -15 -3 0 -5 47 -5 105 0 96 -2 105 -19 105 -14
0 -20 -10 -25 -37z"/>
<path d="M2900 6797 c0 -13 16 -126 35 -250 19 -124 35 -228 35 -231 0 -3 11
-6 25 -6 14 0 25 4 25 9 0 4 20 115 45 245 25 131 45 240 45 242 0 2 -13 4
-29 4 l-28 0 -22 -142 c-13 -79 -26 -152 -30 -162 -5 -13 -14 38 -26 135 -10
84 -20 157 -24 160 -3 4 -16 10 -28 14 -20 5 -23 3 -23 -18z"/>
<path d="M4276 6647 c-22 -16 -35 -75 -36 -162 0 -89 15 -141 45 -161 26 -17
56 -8 74 24 9 15 10 14 11 -5 0 -18 6 -23 25 -23 l25 0 0 170 0 170 -25 0
c-18 0 -25 -5 -25 -20 l0 -20 -20 20 c-23 23 -49 26 -74 7z m84 -66 c18 -34
13 -166 -8 -191 -20 -25 -47 -19 -56 13 -10 36 -7 157 4 178 6 10 19 19 30 19
11 0 24 -9 30 -19z"/>
<path d="M3156 6634 c-25 -24 -31 -60 -31 -174 0 -83 4 -112 17 -132 23 -35
52 -40 83 -16 25 19 25 19 25 -1 0 -16 6 -21 25 -21 l25 0 0 180 0 180 -25 0
c-19 0 -25 -5 -25 -22 l0 -22 -16 22 c-18 26 -56 29 -78 6z m84 -63 c5 -11 10
-55 10 -99 0 -61 -4 -85 -18 -102 -20 -25 -47 -19 -56 13 -9 35 -7 153 4 181
11 31 45 35 60 7z"/>
<path d="M3781 6633 c-12 -10 -26 -36 -31 -58 -11 -46 -13 -153 -4 -207 12
-70 75 -103 108 -56 l16 22 0 -22 c0 -17 6 -22 25 -22 l25 0 0 180 0 180 -25
0 c-19 0 -25 -5 -25 -22 l0 -22 -20 22 c-25 27 -41 28 -69 5z m73 -59 c19 -18
23 -173 6 -205 -15 -28 -49 -24 -60 7 -16 41 -12 166 6 192 18 26 27 27 48 6z"/>
<path d="M2034 5976 c-98 -43 -36 -190 65 -155 37 13 51 35 51 82 0 59 -60 97
-116 73z"/>
<path d="M5105 5965 c-54 -53 -16 -145 59 -145 26 0 40 7 60 31 34 40 33 74
-3 110 -38 37 -82 39 -116 4z"/>
<path d="M2611 5874 c-38 -48 -29 -112 29 -220 51 -95 64 -156 38 -182 -17
-17 -48 -15 -70 5 -17 15 -18 15 -18 -8 0 -30 44 -59 87 -59 48 0 68 31 68
104 -1 54 -6 71 -48 146 -47 87 -57 126 -43 169 7 21 13 23 47 18 34 -4 39 -2
39 14 0 22 -35 39 -80 39 -19 0 -36 -9 -49 -26z"/>
<path d="M3750 5713 c0 -109 -1 -116 -16 -95 -20 28 -65 29 -90 1 -16 -18 -20
-40 -22 -136 -4 -129 0 -155 28 -183 26 -26 46 -25 75 5 23 22 25 23 25 5 0
-15 7 -20 25 -20 l25 0 0 270 0 270 -25 0 -25 0 0 -117z m-10 -152 c16 -32 13
-173 -6 -199 -18 -26 -27 -27 -48 -6 -12 12 -16 36 -16 100 0 93 10 124 40
124 11 0 24 -9 30 -19z"/>
<path d="M3504 5776 c-9 -24 0 -51 18 -54 20 -4 40 30 32 52 -8 20 -43 21 -50
2z"/>
<path d="M4581 5734 c-35 -29 -49 -80 -31 -115 7 -13 28 -37 47 -53 26 -21 33
-35 31 -55 -2 -21 -9 -27 -35 -29 -29 -3 -33 -7 -33 -33 0 -25 4 -29 26 -29
16 0 39 13 60 34 27 27 34 42 34 73 0 34 -6 46 -45 81 -25 22 -45 48 -45 56 0
18 38 46 62 46 13 0 18 8 18 25 0 21 -5 25 -29 25 -17 0 -42 -11 -60 -26z"/>
<path d="M4335 5686 c-30 -30 -45 -85 -44 -166 1 -119 35 -168 103 -149 37 11
62 42 71 87 7 40 3 46 -23 38 -11 -4 -22 -19 -25 -35 -8 -37 -44 -52 -64 -25
-7 10 -13 34 -13 54 l0 36 61 12 c34 6 64 13 67 16 11 12 -11 119 -29 137 -26
26 -75 24 -104 -5z m81 -51 c8 -34 -1 -55 -25 -55 -11 0 -26 -3 -35 -6 -13 -5
-16 1 -16 28 0 40 15 58 47 58 16 0 24 -7 29 -25z"/>
<path d="M2843 5685 c-43 -30 -58 -196 -24 -271 34 -74 119 -85 147 -19 20 49
18 65 -10 65 -17 0 -26 -7 -30 -25 -7 -29 -36 -33 -60 -9 -22 21 -23 109 -1
100 8 -3 37 -8 65 -12 l50 -7 0 39 c0 115 -70 186 -137 139z m77 -54 c5 -11
10 -32 10 -47 0 -22 -3 -25 -22 -20 -13 3 -31 6 -40 6 -19 0 -24 32 -12 64 9
22 51 20 64 -3z"/>
<path d="M4206 5659 l-26 -31 0 27 c0 22 -4 26 -22 23 -23 -3 -23 -5 -26 -180
-1 -107 1 -178 7 -178 38 0 41 10 41 137 0 118 1 125 25 148 13 14 29 25 35
25 5 0 10 14 10 30 0 38 -12 38 -44 -1z"/>
<path d="M3060 5495 c0 -164 1 -175 19 -175 15 0 19 11 25 61 3 34 6 92 6 128
0 72 10 91 47 91 19 0 23 5 23 30 0 37 -31 42 -54 8 l-16 -22 0 27 c0 22 -4
27 -25 27 l-25 0 0 -175z"/>
<path d="M3240 5648 c0 -7 16 -91 37 -185 31 -147 39 -173 55 -173 10 0 18 2
18 5 0 7 70 316 76 338 5 15 1 18 -22 15 -28 -3 -29 -5 -48 -115 -11 -62 -22
-113 -26 -113 -3 0 -14 51 -24 113 -10 61 -23 115 -29 119 -18 12 -37 9 -37
-4z"/>
<path d="M3933 5650 c-38 -16 -56 -56 -61 -140 -5 -94 12 -174 41 -195 45 -32
105 -7 128 52 14 38 11 199 -5 238 -21 49 -55 64 -103 45z m57 -59 c14 -28 13
-214 -2 -229 -21 -21 -48 -14 -59 16 -16 41 -8 210 11 222 23 15 38 12 50 -9z"/>
<path d="M3500 5460 l0 -180 25 0 25 0 0 180 0 180 -25 0 -25 0 0 -180z"/>
<path d="M560 5488 c-25 -40 -57 -93 -72 -119 l-27 -46 112 -31 c62 -17 218
-60 348 -96 415 -116 603 -186 696 -262 103 -85 189 -249 338 -648 112 -299
157 -399 220 -484 82 -112 210 -192 308 -192 48 0 87 22 87 50 0 11 -62 110
-138 222 -75 112 -145 215 -155 230 -9 15 -85 157 -168 315 -83 158 -175 324
-204 368 -159 240 -347 384 -700 536 -144 61 -575 229 -590 229 -5 0 -30 -33
-55 -72z"/>
<path d="M6480 5535 c-19 -8 -129 -51 -245 -96 -394 -153 -647 -291 -793 -433
-128 -123 -172 -191 -347 -531 -141 -274 -193 -363 -335 -575 -65 -97 -127
-195 -139 -218 l-22 -42 28 -11 c77 -30 237 23 317 105 113 117 183 263 341
711 104 293 187 435 305 517 89 61 229 110 665 229 226 61 414 115 419 119 13
13 -126 240 -147 239 -7 0 -28 -6 -47 -14z"/>
<path d="M374 5158 c-21 -41 -12 -45 27 -10 31 28 31 29 10 35 -17 4 -25 -1
-37 -25z"/>
<path d="M670 5070 c-80 -10 -185 -45 -310 -103 -93 -43 -95 -46 -113 -93 -32
-87 -117 -343 -117 -354 0 -6 19 -7 48 -4 138 17 250 65 372 160 41 32 161
121 265 197 105 77 192 142 195 144 8 7 -23 23 -75 37 -66 19 -184 26 -265 16z"/>
<path d="M6385 5076 c-5 -2 -56 -14 -113 -27 -59 -13 -101 -27 -99 -33 4 -11
63 -56 195 -147 40 -27 117 -86 172 -130 132 -106 229 -165 320 -193 87 -27
150 -38 150 -27 0 16 -80 257 -113 341 l-33 85 -107 48 c-59 26 -131 53 -160
61 -54 14 -193 28 -212 22z"/>
<path d="M1245 4886 c-102 -32 -207 -103 -346 -233 -150 -140 -269 -221 -393
-268 -92 -34 -128 -54 -121 -65 9 -15 187 -68 281 -85 125 -22 267 -20 346 5
81 25 135 79 263 265 49 72 124 165 166 208 l77 77 -22 32 c-37 56 -81 78
-150 77 -34 0 -79 -6 -101 -13z"/>
<path d="M5777 4886 c-54 -15 -120 -71 -112 -95 3 -9 45 -59 95 -111 50 -52
119 -138 155 -190 140 -205 173 -235 283 -259 142 -30 393 2 555 71 38 17 45
23 36 34 -6 8 -17 14 -24 14 -26 0 -280 133 -334 175 -31 24 -103 87 -161 140
-207 191 -358 259 -493 221z"/>
<path d="M1642 4633 c-47 -23 -100 -87 -156 -189 -90 -164 -131 -218 -211
-278 -42 -32 -73 -62 -69 -68 4 -5 25 -19 48 -29 51 -23 155 -25 238 -4 59 16
59 16 89 -10 18 -14 43 -25 60 -25 29 0 29 1 29 56 0 38 12 89 37 162 33 94
37 119 38 202 0 87 -3 100 -29 148 -16 28 -32 52 -35 52 -3 0 -21 -8 -39 -17z"/>
<path d="M5459 4578 c-32 -103 -30 -199 4 -313 15 -49 32 -119 37 -154 12 -87
42 -104 99 -55 30 25 31 25 82 10 80 -24 185 -21 239 7 24 12 45 27 47 33 2 6
-21 27 -50 47 -67 46 -124 115 -194 237 -89 153 -125 202 -172 232 -25 15 -51
28 -58 28 -6 0 -22 -33 -34 -72z"/>
<path d="M3752 4293 c-18 -8 -55 -44 -82 -79 l-50 -62 -68 -7 c-90 -9 -178
-31 -218 -55 -47 -30 -97 -88 -139 -166 -21 -38 -68 -100 -105 -139 -37 -38
-79 -93 -93 -120 -17 -35 -60 -83 -131 -149 -59 -54 -158 -162 -220 -240 -62
-78 -132 -157 -155 -175 -55 -44 -102 -114 -108 -162 -6 -43 7 -51 39 -22 17
15 18 15 18 -4 0 -11 -7 -42 -15 -69 -29 -96 -9 -115 38 -36 l28 47 -5 -57
c-4 -32 -2 -59 4 -63 12 -8 38 33 46 73 9 47 24 39 24 -12 0 -77 30 -68 48 14
6 29 10 36 11 20 1 -14 5 -31 10 -38 13 -21 20 7 31 127 5 59 14 120 21 134 7
16 46 49 93 79 45 28 122 86 171 127 118 99 175 141 259 187 l69 38 -6 -76
c-4 -42 -27 -181 -52 -309 -60 -305 -75 -416 -74 -574 0 -231 20 -333 116
-594 61 -166 65 -180 78 -323 17 -174 31 -237 79 -372 40 -111 43 -143 20
-260 -14 -69 -15 -94 -4 -154 13 -82 44 -148 80 -174 14 -10 46 -21 72 -24
l48 -7 25 54 c14 30 28 75 31 101 5 40 10 47 33 52 115 23 159 34 168 39 13 8
35 62 68 168 23 71 27 97 21 145 -18 174 -18 188 3 277 27 114 28 225 1 302
-31 89 -27 114 25 182 170 218 185 256 192 483 6 165 1 220 -43 460 -20 108
-27 180 -28 286 -1 139 -1 141 27 177 15 20 32 37 37 37 21 0 94 -78 175 -184
96 -127 98 -130 181 -179 68 -41 84 -65 110 -167 10 -41 13 -78 9 -111 -9 -64
7 -64 39 -1 l25 47 1 -52 c0 -94 42 -59 56 47 9 70 24 62 24 -14 0 -46 4 -67
16 -77 14 -11 18 -10 31 6 11 16 14 38 9 100 l-5 80 22 -28 c12 -15 28 -47 37
-70 9 -23 22 -42 30 -42 27 0 23 60 -9 136 -17 40 -29 74 -27 77 3 2 13 -1 24
-7 26 -14 52 -14 52 -1 0 5 -19 30 -42 54 -32 32 -58 48 -98 60 -97 28 -116
45 -170 159 -30 62 -74 134 -110 178 -74 90 -116 175 -165 334 -41 133 -86
226 -123 256 -14 11 -50 26 -80 35 -30 9 -62 24 -72 34 -20 20 -50 108 -50
145 0 12 -9 34 -21 48 -43 56 -233 87 -307 50z"/>
</g>
</svg>
